HIERARCHY
ROOT Hips
{
	OFFSET 0.00000 0.00000 0.00000
	CHANNELS 6 Xposition Yposition Zposition Zrotation Yrotation Xrotation 
	JOINT LHipJoint
	{
		OFFSET 0 0 0
		CHANNELS 3 Zrotation Yrotation Xrotation
		JOINT LeftUpLeg
		{
			OFFSET 1.48831 -1.59570 0.95625
			CHANNELS 3 Zrotation Yrotation Xrotation
			JOINT LeftLeg
			{
				OFFSET 2.20856 -6.06797 0.00000
				CHANNELS 3 Zrotation Yrotation Xrotation
				JOINT LeftFoot
				{
					OFFSET 2.62924 -7.22379 0.00000
					CHANNELS 3 Zrotation Yrotation Xrotation
					JOINT LeftToeBase
					{
						OFFSET 0.16802 -0.46163 2.41673
						CHANNELS 3 Zrotation Yrotation Xrotation
						End Site
						{
							OFFSET 0.00000 -0.00000 1.23760
						}
					}
				}
			}
		}
	}
	JOINT RHipJoint
	{
		OFFSET 0 0 0
		CHANNELS 3 Zrotation Yrotation Xrotation
		JOINT RightUpLeg
		{
			OFFSET -1.56796 -1.59570 0.95625
			CHANNELS 3 Zrotation Yrotation Xrotation
			JOINT RightLeg
			{
				OFFSET -2.29239 -6.29829 0.00000
				CHANNELS 3 Zrotation Yrotation Xrotation
				JOINT RightFoot
				{
					OFFSET -2.66963 -7.33475 0.00000
					CHANNELS 3 Zrotation Yrotation Xrotation
					JOINT RightToeBase
					{
						OFFSET -0.18185 -0.49964 2.34359
						CHANNELS 3 Zrotation Yrotation Xrotation
						End Site
						{
							OFFSET -0.00000 -0.00000 1.20477
						}
					}
				}
			}
		}
	}
	JOINT LowerBack
	{
		OFFSET 0 0 0
		CHANNELS 3 Zrotation Yrotation Xrotation
		JOINT Spine
		{
			OFFSET 0.03505 2.15832 -0.34324
			CHANNELS 3 Zrotation Yrotation Xrotation
			JOINT Spine1
			{
				OFFSET -0.01089 2.17963 0.04689
				CHANNELS 3 Zrotation Yrotation Xrotation
				JOINT Neck
				{
					OFFSET 0 0 0
					CHANNELS 3 Zrotation Yrotation Xrotation
					JOINT Neck1
					{
						OFFSET 0.04686 1.69404 0.22159
						CHANNELS 3 Zrotation Yrotation Xrotation
						JOINT Head
						{
							OFFSET 0.00265 1.69305 -0.01513
							CHANNELS 3 Zrotation Yrotation Xrotation
							End Site
							{
								OFFSET -0.00415 1.80215 -0.03034
							}
						}
					}
				}
				JOINT LeftShoulder
				{
					OFFSET 0 0 0
					CHANNELS 3 Zrotation Yrotation Xrotation
					JOINT LeftArm
					{
						OFFSET 3.67184 1.11724 -0.19002
						CHANNELS 3 Zrotation Yrotation Xrotation
						JOINT LeftForeArm
						{
							OFFSET 5.17714 -0.00000 -0.00000
							CHANNELS 3 Zrotation Yrotation Xrotation
							JOINT LeftHand
							{
								OFFSET 3.43679 -0.00000 -0.00000
								CHANNELS 3 Zrotation Yrotation Xrotation
								JOINT LeftFingerBase
								{
									OFFSET 0 0 0
									CHANNELS 3 Zrotation Yrotation Xrotation
									JOINT LeftHandIndex1
									{
										OFFSET 0.57312 -0.00000 -0.00000
										CHANNELS 3 Zrotation Yrotation Xrotation
										End Site
										{
											OFFSET 0.46206 -0.00000 -0.00000
										}
									}
								}
								JOINT LThumb
								{
									OFFSET 0 0 0
									CHANNELS 3 Zrotation Yrotation Xrotation
									End Site
									{
										OFFSET 0.46912 -0.00000 0.46912
									}
								}
							}
						}
					}
				}
				JOINT RightShoulder
				{
					OFFSET 0 0 0
					CHANNELS 3 Zrotation Yrotation Xrotation
					JOINT RightArm
					{
						OFFSET -3.59596 0.95831 -0.26050
						CHANNELS 3 Zrotation Yrotation Xrotation
						JOINT RightForeArm
						{
							OFFSET -5.23908 -0.00000 -0.00000
							CHANNELS 3 Zrotation Yrotation Xrotation
							JOINT RightHand
							{
								OFFSET -3.46485 -0.00000 -0.00000
								CHANNELS 3 Zrotation Yrotation Xrotation
								JOINT RightFingerBase
								{
									OFFSET 0 0 0
									CHANNELS 3 Zrotation Yrotation Xrotation
									JOINT RightHandIndex1
									{
										OFFSET -0.60875 -0.00000 -0.00000
										CHANNELS 3 Zrotation Yrotation Xrotation
										End Site
										{
											OFFSET -0.49079 -0.00000 -0.00000
										}
									}
								}
								JOINT RThumb
								{
									OFFSET 0 0 0
									CHANNELS 3 Zrotation Yrotation Xrotation
									End Site
									{
										OFFSET -0.49829 -0.00000 0.49829
									}
								}
							}
						}
					}
				}
			}
		}
	}
}
MOTION
Frames: 12
Frame Time: .0083333
49.9837 15.9304 17.2289 0 0 0 0 0 0 -21 0 0 0 0 0 0 0 0 0 0 0 0 0 0 21 0 0 0 0 0 0 0 0 0 0 0 0 0 0 0 0 0 0 0 0 0 0 -16 0 0 21 0 0 11 0 0 0 -8 0 0 0 0 0 0 0 0 0 0 0 0 0 0 0 0 0 0 0 0 8 0 0 0 0 0 0 0 0 0 0 0 0 0 0 0 0 0
49.9837 15.9304 17.2289 -174.6350 -39.2979 179.2140 0.0000 0.0000 0.0000 -16.4541 5.9022 -11.1059 2.3863 9.6282 27.7810 1.5432 -6.7462 -22.2577 0.0000 -0.0209 -0.0574 0.0000 0.0000 0.0000 22.5007 9.8697 -11.8894 -3.7563 -11.8288 35.1290 -1.8429 -2.5396 -26.6660 -0.0003 0.1093 -0.3003 4.8635 -0.2021 -5.5284 1.4080 -0.8055 2.9159 -1.3479 -0.2551 6.1097 2.0154 -0.7838 -10.2937 4.0877 -2.7745 18.6239 0.7107 -1.0177 7.4629 0.0000 -0.0000 0.0000 -89.7936 0.3340 19.9645 10.8305 -18.0279 -1.7231 -0.0000 0.0000 -13.5341 19.0970 12.2016 4.1852 -7.1250 0.0000 -0.0000 -7.3586 42.7504 0.4109 0.0000 -0.0000 0.0000 87.8309 0.6557 17.6668 -19.5270 30.0683 -5.2923 0.0000 -0.0000 -1.4031 -20.1215 -8.3657 3.0512 7.1250 -0.0000 -0.0000 5.8407 -38.8187 0.8930
49.9832 15.9302 17.2395 -174.6720 -39.3016 179.2220 0.0000 0.0000 0.0000 -16.5225 6.0199 -11.1469 2.3822 9.6205 27.7562 1.5430 -6.6832 -22.2585 0.0008 -0.1814 -0.4984 0.0000 0.0000 0.0000 22.4307 9.8710 -11.9197 -3.7626 -11.8376 35.1597 -1.8474 -2.4736 -26.6685 -0.0001 0.0528 -0.1452 4.8551 -0.1620 -5.4870 1.2948 -0.7384 2.9126 -1.4538 -0.2189 6.0847 2.1504 -0.8543 -10.1970 4.0065 -2.8740 18.5656 0.6530 -1.0663 7.4252 0.0000 0.0000 0.0000 -89.3463 0.1388 20.7027 10.6815 -17.7985 -1.6773 -0.0000 0.0000 -14.2987 19.3549 11.9152 4.1481 -7.1250 0.0000 -0.0000 -7.0746 42.4782 0.4426 0.0000 0.0000 0.0000 87.9449 0.6982 17.5599 -19.4748 30.0043 -5.2662 0.0000 -0.0000 -1.2967 -20.1710 -8.5106 3.1119 7.1250 -0.0000 -0.0000 5.8176 -38.9754 0.8669
49.9831 15.9299 17.2495 -174.7080 -39.3387 179.2300 0.0000 0.0000 0.0000 -16.5718 6.1217 -11.2001 2.3801 9.6166 27.7438 1.5372 -6.7884 -22.2107 0.0012 -0.2268 -0.6233 0.0000 0.0000 0.0000 22.3729 9.8516 -11.9216 -3.7559 -11.8283 35.1272 -1.8371 -2.5547 -26.6321 -0.0004 0.1257 -0.3454 4.7033 -0.1846 -5.4286 1.2990 -0.7515 2.8997 -1.3654 -0.2325 6.0376 2.1140 -0.8828 -10.1053 3.9331 -2.8871 18.5455 0.6346 -1.0834 7.4012 -0.0000 -0.0000 0.0000 -89.3524 0.0915 20.7499 10.5200 -17.5489 -1.6283 -0.0000 0.0000 -14.3752 19.4737 11.6477 4.0834 -7.1250 0.0000 -0.0000 -6.9199 42.2106 0.4787 -0.0000 -0.0000 0.0000 87.8220 0.6752 17.7070 -19.4756 30.0054 -5.2666 0.0000 -0.0000 -1.2988 -20.1089 -8.2463 3.0060 7.1250 -0.0000 -0.0000 5.8356 -38.6917 0.9104
49.9787 15.9353 17.2595 -174.7750 -39.3424 179.2940 0.0000 0.0000 0.0000 -16.6230 5.7814 -11.1619 2.3780 9.6127 27.7315 1.5185 -6.8675 -22.0688 0.0002 0.0816 0.2243 0.0000 0.0000 0.0000 22.2709 9.8567 -11.9435 -3.7471 -11.8160 35.0843 -1.8314 -2.5670 -26.5981 -0.0003 0.1117 -0.3069 4.5989 -0.2035 -5.4462 1.2726 -0.7673 2.9125 -1.3363 -0.2427 6.0605 2.0718 -0.8294 -10.2087 3.9081 -2.8033 18.5897 0.6407 -1.0446 7.4330 -0.0000 -0.0000 0.0000 -89.0410 -0.0677 22.5002 10.2368 -17.1091 -1.5439 -0.0000 0.0000 -16.0702 19.6844 11.7924 4.1815 -7.1250 0.0000 -0.0000 -6.7585 42.3832 0.4385 -0.0000 -0.0000 0.0000 87.7625 0.7506 17.7697 -19.4277 29.9466 -5.2426 0.0000 -0.0000 -1.2797 -20.1303 -8.4132 3.0698 7.1250 -0.0000 -0.0000 5.8394 -38.8695 0.8855
49.9755 15.9401 17.2692 -174.8440 -39.3510 179.3560 0.0000 0.0000 0.0000 -16.6809 5.5064 -11.1400 2.3764 9.6097 27.7219 1.5019 -6.9348 -21.9419 0.0024 0.3170 0.8710 0.0000 0.0000 0.0000 22.1714 9.8563 -11.9560 -3.7350 -11.7991 35.0249 -1.8232 -2.6020 -26.5559 -0.0004 0.1252 -0.3440 4.4987 -0.2048 -5.4450 1.2254 -0.7559 2.9073 -1.3283 -0.2394 6.0548 2.0712 -0.8329 -10.1888 3.8691 -2.7965 18.5705 0.6290 -1.0449 7.4223 -0.0000 -0.0000 0.0000 -88.8955 -0.1623 23.0332 10.0806 -16.8656 -1.4983 -0.0000 0.0000 -16.5775 19.7910 11.7107 4.1773 -7.1250 0.0000 -0.0000 -6.6490 42.3085 0.4437 -0.0000 -0.0000 0.0000 87.7411 0.7763 17.7916 -19.3904 29.9009 -5.2241 0.0000 -0.0000 -1.2399 -20.1289 -8.3968 3.0637 7.1250 -0.0000 -0.0000 5.8384 -38.8521 0.8878
49.9721 15.9456 17.2788 -174.9210 -39.3558 179.4280 0.0000 0.0000 0.0000 -16.7413 5.1806 -11.1076 2.3749 9.6067 27.7123 1.4838 -7.0039 -21.8042 0.0085 0.5966 1.6394 0.0000 0.0000 0.0000 22.0668 9.8598 -11.9656 -3.7203 -11.7786 34.9531 -1.8133 -2.6516 -26.5088 -0.0005 0.1478 -0.4061 4.3973 -0.2073 -5.4491 1.1753 -0.7462 2.9027 -1.3226 -0.2368 6.0527 2.0637 -0.8328 -10.1683 3.8466 -2.7854 18.5350 0.6242 -1.0422 7.4065 -0.0000 0.0000 0.0000 -88.8122 -0.2369 23.2808 9.9566 -16.6717 -1.4625 -0.0000 0.0000 -16.7990 19.8221 11.6846 4.1753 -7.1250 0.0000 -0.0000 -6.6166 42.2842 0.4455 -0.0000 0.0000 0.0000 87.7284 0.8043 17.8001 -19.3465 29.8469 -5.2022 0.0000 -0.0000 -1.1913 -20.1230 -8.3856 3.0586 7.1250 -0.0000 -0.0000 5.8421 -38.8398 0.8901
49.9691 15.9506 17.2882 -174.9960 -39.3605 179.4950 0.0000 0.0000 0.0000 -16.8045 4.8833 -11.0747 2.3727 9.6027 27.6995 1.4674 -7.0576 -21.6790 0.0172 0.8478 2.3302 0.0000 0.0000 0.0000 21.9657 9.8704 -11.9747 -3.7084 -11.7620 34.8950 -1.8059 -2.6930 -26.4751 -0.0006 0.1608 -0.4419 4.3056 -0.2084 -5.4471 1.1168 -0.7346 2.9010 -1.3310 -0.2326 6.0501 2.0659 -0.8347 -10.1480 3.8307 -2.7784 18.4837 0.6197 -1.0404 7.3857 -0.0000 0.0000 0.0000 -88.7462 -0.3171 23.3478 9.8527 -16.5089 -1.4328 -0.0000 0.0000 -16.8395 19.7968 11.7089 4.1780 -7.1250 0.0000 -0.0000 -6.6435 42.3071 0.4435 -0.0000 0.0000 0.0000 87.7382 0.8339 17.7851 -19.2959 29.7847 -5.1770 0.0000 -0.0000 -1.1370 -20.1162 -8.3741 3.0534 7.1250 -0.0000 -0.0000 5.8463 -38.8272 0.8926
49.9670 15.9542 17.2975 -175.0660 -39.3674 179.5480 0.0000 0.0000 0.0000 -16.8697 4.6776 -11.0514 2.3698 9.5972 27.6819 1.4540 -7.1014 -21.5766 0.0253 1.0265 2.8216 0.0000 0.0000 0.0000 21.8749 9.8875 -11.9794 -3.7004 -11.7507 34.8557 -1.8007 -2.7351 -26.4573 -0.0007 0.1722 -0.4731 4.2123 -0.2112 -5.4298 1.0609 -0.7249 2.9022 -1.3359 -0.2298 6.0416 2.0583 -0.8341 -10.1211 3.8391 -2.7691 18.4100 0.6249 -1.0363 7.3568 -0.0000 -0.0000 0.0000 -88.7174 -0.3907 23.2070 9.7756 -16.3878 -1.4110 -0.0000 0.0000 -16.6778 19.7315 11.7545 4.1791 -7.1250 0.0000 -0.0000 -6.7098 42.3483 0.4412 -0.0000 -0.0000 0.0000 87.7505 0.8574 17.7617 -19.2418 29.7180 -5.1502 0.0000 -0.0000 -1.0799 -20.1016 -8.3487 3.0418 7.1250 -0.0000 -0.0000 5.8555 -38.7992 0.8981
49.9659 15.9566 17.3069 -175.1280 -39.3803 179.5830 0.0000 0.0000 0.0000 -16.9343 4.5775 -11.0441 2.3661 9.5903 27.6600 1.4434 -7.1385 -21.4955 0.0302 1.1226 3.0861 0.0000 0.0000 0.0000 21.7968 9.9113 -11.9794 -3.6965 -11.7452 34.8364 -1.7988 -2.7713 -26.4597 -0.0007 0.1731 -0.4756 4.1170 -0.2194 -5.3975 1.0120 -0.7225 2.9090 -1.3329 -0.2309 6.0303 2.0501 -0.8344 -10.0906 3.8427 -2.7572 18.3144 0.6291 -1.0314 7.3201 0.0000 0.0000 0.0000 -88.6803 -0.4750 23.1593 9.7016 -16.2715 -1.3902 -0.0000 0.0000 -16.6108 19.6771 11.8092 4.1857 -7.1250 0.0000 -0.0000 -6.7680 42.4002 0.4363 0.0000 0.0000 0.0000 87.7590 0.8825 17.7371 -19.1842 29.6470 -5.1217 0.0000 -0.0000 -1.0298 -20.0795 -8.3269 3.0303 7.1250 -0.0000 -0.0000 5.8715 -38.7747 0.9041
49.9654 15.9569 17.3164 -175.1780 -39.3952 179.5950 0.0000 0.0000 0.0000 -16.9987 4.6049 -11.0514 2.3619 9.5824 27.6347 1.4374 -7.1678 -21.4489 0.0305 1.1275 3.0997 0.0000 0.0000 0.0000 21.7340 9.9378 -11.9728 -3.6965 -11.7452 34.8363 -1.7982 -2.8108 -26.4731 -0.0007 0.1760 -0.4836 4.0247 -0.2325 -5.3467 0.9714 -0.7270 2.9208 -1.3236 -0.2357 6.0133 2.0317 -0.8309 -10.0562 3.8495 -2.7367 18.2010 0.6368 -1.0228 7.2770 0.0000 -0.0000 0.0000 -88.6407 -0.5624 23.1902 9.6340 -16.1651 -1.3713 -0.0000 0.0000 -16.6268 19.6552 11.8620 4.1990 -7.1250 0.0000 -0.0000 -6.7972 42.4531 0.4293 0.0000 -0.0000 0.0000 87.7580 0.9026 17.7228 -19.1261 29.5751 -5.0929 0.0000 -0.0000 -0.9891 -20.0485 -8.3009 3.0159 7.1250 -0.0000 -0.0000 5.8946 -38.7448 0.9120
49.9650 15.9573 17.3258 -175.2280 -39.4114 179.6080 0.0000 0.0000 0.0000 -17.0639 4.6259 -11.0563 2.3574 9.5739 27.6078 1.4314 -7.1915 -21.4026 0.0309 1.1349 3.1202 0.0000 0.0000 0.0000 21.6713 9.9675 -11.9698 -3.6985 -11.7480 34.8464 -1.7989 -2.8452 -26.4931 -0.0007 0.1737 -0.4774 3.9297 -0.2464 -5.2982 0.9349 -0.7332 2.9335 -1.3087 -0.2416 5.9986 2.0175 -0.8352 -10.0061 3.8363 -2.7209 18.0655 0.6371 -1.0182 7.2235 -0.0000 0.0000 0.0000 -88.6058 -0.6555 23.2394 9.5734 -16.0695 -1.3545 -0.0000 0.0000 -16.6578 19.6767 11.8442 4.1978 -7.1250 0.0000 -0.0000 -6.7748 42.4368 0.4306 -0.0000 0.0000 0.0000 87.7518 0.9134 17.7111 -19.0688 29.5040 -5.0647 0.0000 -0.0000 -0.9570 -20.0216 -8.2700 3.0004 7.1250 -0.0000 -0.0000 5.9136 -38.7104 0.9200
